<?xml version="1.0" encoding="UTF-8" standalone="no"?>
<!-- Created with Inkscape (http://www.inkscape.org/) -->

<svg
   width="144.24147"
   height="165.09651"
   id="svg2"
   version="1.1"
   inkscape:version="1.1.2 (0a00cf5339, 2022-02-04, custom)"
   sodipodi:docname="instructions.svg"
   inkscape:export-filename="/home/foranw/src/work/tasks/choice-landscape/resources/public/imgs/fingers.png"
   inkscape:export-xdpi="100"
   inkscape:export-ydpi="100"
   xmlns:inkscape="http://www.inkscape.org/namespaces/inkscape"
   xmlns:sodipodi="http://sodipodi.sourceforge.net/DTD/sodipodi-0.dtd"
   xmlns="http://www.w3.org/2000/svg"
   xmlns:svg="http://www.w3.org/2000/svg"
   xmlns:rdf="http://www.w3.org/1999/02/22-rdf-syntax-ns#"
   xmlns:cc="http://creativecommons.org/ns#"
   xmlns:dc="http://purl.org/dc/elements/1.1/">
  <defs
     id="defs4">
    <clipPath
       id="clipPath5173"
       clipPathUnits="userSpaceOnUse">
      <path
         style="opacity:1;fill:#000097;fill-opacity:0.43956;fill-rule:nonzero;stroke:none;stroke-width:0.2;stroke-linecap:butt;stroke-linejoin:round;stroke-miterlimit:4;stroke-dasharray:none;stroke-dashoffset:0;stroke-opacity:1"
         d="m 421.00002,99.005054 81.7857,-24.285716 c 40.85158,12.42505 85.72903,18.81128 116.69682,46.062012 0,0 29.04832,119.93549 -24.95168,102.93549 -69.10764,49.40924 -152.04137,57.53411 -231.30506,37.23846 z"
         id="path5175"
         inkscape:connector-curvature="0"
         sodipodi:nodetypes="cccccc" />
    </clipPath>
    <clipPath
       id="clipPath4214-68-2-7"
       clipPathUnits="userSpaceOnUse">
      <path
         style="opacity:1;fill:#000097;fill-opacity:0.43956;fill-rule:nonzero;stroke:none;stroke-width:0.2;stroke-linecap:butt;stroke-linejoin:round;stroke-miterlimit:4;stroke-dasharray:none;stroke-dashoffset:0;stroke-opacity:1"
         d="m 421.00002,99.005054 81.7857,-24.285716 c 40.85158,12.42505 85.72903,18.81128 116.69682,46.062012 0,0 29.04832,119.93549 -24.95168,102.93549 -69.10764,49.40924 -152.04137,57.53411 -231.30506,37.23846 z"
         id="path4216-11-69-1"
         inkscape:connector-curvature="0"
         sodipodi:nodetypes="cccccc" />
    </clipPath>
    <clipPath
       id="clipPath4999"
       clipPathUnits="userSpaceOnUse">
      <path
         style="opacity:1;fill:#000097;fill-opacity:0.43956;fill-rule:nonzero;stroke:none;stroke-width:0.2;stroke-linecap:butt;stroke-linejoin:round;stroke-miterlimit:4;stroke-dasharray:none;stroke-dashoffset:0;stroke-opacity:1"
         d="m 421.00002,99.005054 81.7857,-24.285716 c 40.85158,12.42505 85.72903,18.81128 116.69682,46.062012 0,0 29.04832,119.93549 -24.95168,102.93549 -69.10764,49.40924 -152.04137,57.53411 -231.30506,37.23846 z"
         id="path5001"
         inkscape:connector-curvature="0"
         sodipodi:nodetypes="cccccc" />
    </clipPath>
    <clipPath
       id="clipPath4214-68-2"
       clipPathUnits="userSpaceOnUse">
      <path
         style="opacity:1;fill:#000097;fill-opacity:0.43956;fill-rule:nonzero;stroke:none;stroke-width:0.2;stroke-linecap:butt;stroke-linejoin:round;stroke-miterlimit:4;stroke-dasharray:none;stroke-dashoffset:0;stroke-opacity:1"
         d="m 421.00002,99.005054 81.7857,-24.285716 c 40.85158,12.42505 85.72903,18.81128 116.69682,46.062012 0,0 29.04832,119.93549 -24.95168,102.93549 -69.10764,49.40924 -152.04137,57.53411 -231.30506,37.23846 z"
         id="path4216-11-69"
         inkscape:connector-curvature="0"
         sodipodi:nodetypes="cccccc" />
    </clipPath>
    <clipPath
       id="clipPath4214-68-4-8"
       clipPathUnits="userSpaceOnUse">
      <path
         style="opacity:1;fill:#000097;fill-opacity:0.43956;fill-rule:nonzero;stroke:none;stroke-width:0.2;stroke-linecap:butt;stroke-linejoin:round;stroke-miterlimit:4;stroke-dasharray:none;stroke-dashoffset:0;stroke-opacity:1"
         d="M 383.92617,91.140904 502.78572,74.719338 c 40.85158,12.42505 85.72903,18.81128 116.69682,46.062012 0,0 29.04832,119.93549 -24.95168,102.93549 C 703.88335,582.60757 481.63925,349.14357 363.2258,260.9553 Z"
         id="path4216-11-6-5"
         inkscape:connector-curvature="0"
         sodipodi:nodetypes="cccccc" />
    </clipPath>
    <clipPath
       id="clipPath4214-68-4"
       clipPathUnits="userSpaceOnUse">
      <path
         style="opacity:1;fill:#000097;fill-opacity:0.43956;fill-rule:nonzero;stroke:none;stroke-width:0.2;stroke-linecap:butt;stroke-linejoin:round;stroke-miterlimit:4;stroke-dasharray:none;stroke-dashoffset:0;stroke-opacity:1"
         d="M 383.92617,91.140904 502.78572,74.719338 c 40.85158,12.42505 85.72903,18.81128 116.69682,46.062012 0,0 29.04832,119.93549 -24.95168,102.93549 C 703.88335,582.60757 481.63925,349.14357 363.2258,260.9553 Z"
         id="path4216-11-6"
         inkscape:connector-curvature="0"
         sodipodi:nodetypes="cccccc" />
    </clipPath>
    <clipPath
       id="clipPath4411"
       clipPathUnits="userSpaceOnUse">
      <path
         style="opacity:1;fill:#000097;fill-opacity:0.43956;fill-rule:nonzero;stroke:none;stroke-width:0.2;stroke-linecap:butt;stroke-linejoin:round;stroke-miterlimit:4;stroke-dasharray:none;stroke-dashoffset:0;stroke-opacity:1"
         d="m 421.00002,99.005054 81.7857,-24.285716 c 40.85158,12.42505 85.72903,18.81128 116.69682,46.062012 0,0 29.04832,119.93549 -24.95168,102.93549 -69.10764,49.40924 -152.04137,57.53411 -231.30506,37.23846 z"
         id="path4413"
         inkscape:connector-curvature="0"
         sodipodi:nodetypes="cccccc" />
    </clipPath>
    <clipPath
       id="clipPath4214-68"
       clipPathUnits="userSpaceOnUse">
      <path
         style="opacity:1;fill:#000097;fill-opacity:0.43956;fill-rule:nonzero;stroke:none;stroke-width:0.2;stroke-linecap:butt;stroke-linejoin:round;stroke-miterlimit:4;stroke-dasharray:none;stroke-dashoffset:0;stroke-opacity:1"
         d="m 421.00002,99.005054 81.7857,-24.285716 c 40.85158,12.42505 85.72903,18.81128 116.69682,46.062012 0,0 29.04832,119.93549 -24.95168,102.93549 -69.10764,49.40924 -152.04137,57.53411 -231.30506,37.23846 z"
         id="path4216-11"
         inkscape:connector-curvature="0"
         sodipodi:nodetypes="cccccc" />
    </clipPath>
    <clipPath
       id="clipPath4332"
       clipPathUnits="userSpaceOnUse">
      <path
         style="opacity:1;fill:#000097;fill-opacity:0.43956;fill-rule:nonzero;stroke:none;stroke-width:0.2;stroke-linecap:butt;stroke-linejoin:round;stroke-miterlimit:4;stroke-dasharray:none;stroke-dashoffset:0;stroke-opacity:1"
         d="m 421.00002,99.005054 81.7857,-24.285716 c 40.85158,12.42505 85.72903,18.81128 116.69682,46.062012 0,0 29.04832,119.93549 -24.95168,102.93549 -69.10764,49.40924 -152.04137,57.53411 -231.30506,37.23846 z"
         id="path4334"
         inkscape:connector-curvature="0"
         sodipodi:nodetypes="cccccc" />
    </clipPath>
    <clipPath
       id="clipPath4214-6"
       clipPathUnits="userSpaceOnUse">
      <path
         style="opacity:1;fill:#000097;fill-opacity:0.43956;fill-rule:nonzero;stroke:none;stroke-width:0.2;stroke-linecap:butt;stroke-linejoin:round;stroke-miterlimit:4;stroke-dasharray:none;stroke-dashoffset:0;stroke-opacity:1"
         d="m 421.00002,99.005054 81.7857,-24.285716 c 40.85158,12.42505 85.72903,18.81128 116.69682,46.062012 0,0 29.04832,119.93549 -24.95168,102.93549 -69.10764,49.40924 -152.04137,57.53411 -231.30506,37.23846 z"
         id="path4216-1"
         inkscape:connector-curvature="0"
         sodipodi:nodetypes="cccccc" />
    </clipPath>
    <clipPath
       id="clipPath4214"
       clipPathUnits="userSpaceOnUse">
      <path
         style="opacity:1;fill:#000097;fill-opacity:0.43956;fill-rule:nonzero;stroke:none;stroke-width:0.2;stroke-linecap:butt;stroke-linejoin:round;stroke-miterlimit:4;stroke-dasharray:none;stroke-dashoffset:0;stroke-opacity:1"
         d="m 421.00002,99.005054 81.7857,-24.285716 c 40.85158,12.42505 85.72903,18.81128 116.69682,46.062012 0,0 29.04832,119.93549 -24.95168,102.93549 -69.10764,49.40924 -152.04137,57.53411 -231.30506,37.23846 z"
         id="path4216"
         inkscape:connector-curvature="0"
         sodipodi:nodetypes="cccccc" />
    </clipPath>
    <clipPath
       id="clipPath4214-68-2-7-6"
       clipPathUnits="userSpaceOnUse">
      <path
         style="opacity:1;fill:#000097;fill-opacity:0.43956;fill-rule:nonzero;stroke:none;stroke-width:0.2;stroke-linecap:butt;stroke-linejoin:round;stroke-miterlimit:4;stroke-dasharray:none;stroke-dashoffset:0;stroke-opacity:1"
         d="m 421.00002,99.005054 81.7857,-24.285716 c 40.85158,12.42505 85.72903,18.81128 116.69682,46.062012 0,0 29.04832,119.93549 -24.95168,102.93549 -69.10764,49.40924 -152.04137,57.53411 -231.30506,37.23846 z"
         id="path4216-11-69-1-9"
         inkscape:connector-curvature="0"
         sodipodi:nodetypes="cccccc" />
    </clipPath>
    <clipPath
       id="clipPath4550"
       clipPathUnits="userSpaceOnUse">
      <path
         style="opacity:1;fill:#000097;fill-opacity:0.43956;fill-rule:nonzero;stroke:none;stroke-width:0.2;stroke-linecap:butt;stroke-linejoin:round;stroke-miterlimit:4;stroke-dasharray:none;stroke-dashoffset:0;stroke-opacity:1"
         d="m 421.00002,99.005054 81.7857,-24.285716 c 40.85158,12.42505 85.72903,18.81128 116.69682,46.062012 0,0 29.04832,119.93549 -24.95168,102.93549 -69.10764,49.40924 -152.04137,57.53411 -231.30506,37.23846 z"
         id="path4552"
         inkscape:connector-curvature="0"
         sodipodi:nodetypes="cccccc" />
    </clipPath>
    <clipPath
       id="clipPath4214-68-2-7-5"
       clipPathUnits="userSpaceOnUse">
      <path
         style="opacity:1;fill:#000097;fill-opacity:0.43956;fill-rule:nonzero;stroke:none;stroke-width:0.2;stroke-linecap:butt;stroke-linejoin:round;stroke-miterlimit:4;stroke-dasharray:none;stroke-dashoffset:0;stroke-opacity:1"
         d="m 421.00002,99.005054 81.7857,-24.285716 c 40.85158,12.42505 85.72903,18.81128 116.69682,46.062012 0,0 29.04832,119.93549 -24.95168,102.93549 -69.10764,49.40924 -152.04137,57.53411 -231.30506,37.23846 z"
         id="path4216-11-69-1-95"
         inkscape:connector-curvature="0"
         sodipodi:nodetypes="cccccc" />
    </clipPath>
    <clipPath
       id="clipPath4214-68-2-7-5-3"
       clipPathUnits="userSpaceOnUse">
      <path
         style="opacity:1;fill:#000097;fill-opacity:0.43956;fill-rule:nonzero;stroke:none;stroke-width:0.2;stroke-linecap:butt;stroke-linejoin:round;stroke-miterlimit:4;stroke-dasharray:none;stroke-dashoffset:0;stroke-opacity:1"
         d="m 421.00002,99.005054 81.7857,-24.285716 c 40.85158,12.42505 85.72903,18.81128 116.69682,46.062012 0,0 29.04832,119.93549 -24.95168,102.93549 -69.10764,49.40924 -152.04137,57.53411 -231.30506,37.23846 z"
         id="path4216-11-69-1-95-3"
         inkscape:connector-curvature="0"
         sodipodi:nodetypes="cccccc" />
    </clipPath>
    <clipPath
       id="clipPath4214-6-3"
       clipPathUnits="userSpaceOnUse">
      <path
         style="opacity:1;fill:#000097;fill-opacity:0.43956;fill-rule:nonzero;stroke:none;stroke-width:0.2;stroke-linecap:butt;stroke-linejoin:round;stroke-miterlimit:4;stroke-dasharray:none;stroke-dashoffset:0;stroke-opacity:1"
         d="m 421.00002,99.005054 81.7857,-24.285716 c 40.85158,12.42505 85.72903,18.81128 116.69682,46.062012 0,0 29.04832,119.93549 -24.95168,102.93549 -69.10764,49.40924 -152.04137,57.53411 -231.30506,37.23846 z"
         id="path4216-1-7"
         inkscape:connector-curvature="0"
         sodipodi:nodetypes="cccccc" />
    </clipPath>
    <clipPath
       id="clipPath4214-6-3-8"
       clipPathUnits="userSpaceOnUse">
      <path
         style="opacity:1;fill:#000097;fill-opacity:0.43956;fill-rule:nonzero;stroke:none;stroke-width:0.2;stroke-linecap:butt;stroke-linejoin:round;stroke-miterlimit:4;stroke-dasharray:none;stroke-dashoffset:0;stroke-opacity:1"
         d="m 421.00002,99.005054 81.7857,-24.285716 c 40.85158,12.42505 85.72903,18.81128 116.69682,46.062012 0,0 29.04832,119.93549 -24.95168,102.93549 -69.10764,49.40924 -152.04137,57.53411 -231.30506,37.23846 z"
         id="path4216-1-7-2"
         inkscape:connector-curvature="0"
         sodipodi:nodetypes="cccccc" />
    </clipPath>
    <clipPath
       id="clipPath4214-6-3-8-7"
       clipPathUnits="userSpaceOnUse">
      <path
         style="opacity:1;fill:#000097;fill-opacity:0.43956;fill-rule:nonzero;stroke:none;stroke-width:0.2;stroke-linecap:butt;stroke-linejoin:round;stroke-miterlimit:4;stroke-dasharray:none;stroke-dashoffset:0;stroke-opacity:1"
         d="m 421.00002,99.005054 81.7857,-24.285716 c 40.85158,12.42505 85.72903,18.81128 116.69682,46.062012 0,0 29.04832,119.93549 -24.95168,102.93549 -69.10764,49.40924 -152.04137,57.53411 -231.30506,37.23846 z"
         id="path4216-1-7-2-3"
         inkscape:connector-curvature="0"
         sodipodi:nodetypes="cccccc" />
    </clipPath>
    <clipPath
       id="clipPath4214-68-2-7-5-36"
       clipPathUnits="userSpaceOnUse">
      <path
         style="opacity:1;fill:#000097;fill-opacity:0.43956;fill-rule:nonzero;stroke:none;stroke-width:0.2;stroke-linecap:butt;stroke-linejoin:round;stroke-miterlimit:4;stroke-dasharray:none;stroke-dashoffset:0;stroke-opacity:1"
         d="m 421.00002,99.005054 81.7857,-24.285716 c 40.85158,12.42505 85.72903,18.81128 116.69682,46.062012 0,0 29.04832,119.93549 -24.95168,102.93549 -69.10764,49.40924 -152.04137,57.53411 -231.30506,37.23846 z"
         id="path4216-11-69-1-95-8"
         inkscape:connector-curvature="0"
         sodipodi:nodetypes="cccccc" />
    </clipPath>
    <clipPath
       id="clipPath4214-6-3-8-7-7"
       clipPathUnits="userSpaceOnUse">
      <path
         style="opacity:1;fill:#000097;fill-opacity:0.43956;fill-rule:nonzero;stroke:none;stroke-width:0.2;stroke-linecap:butt;stroke-linejoin:round;stroke-miterlimit:4;stroke-dasharray:none;stroke-dashoffset:0;stroke-opacity:1"
         d="m 421.00002,99.005054 81.7857,-24.285716 c 40.85158,12.42505 85.72903,18.81128 116.69682,46.062012 0,0 29.04832,119.93549 -24.95168,102.93549 -69.10764,49.40924 -152.04137,57.53411 -231.30506,37.23846 z"
         id="path4216-1-7-2-3-1"
         inkscape:connector-curvature="0"
         sodipodi:nodetypes="cccccc" />
    </clipPath>
    <clipPath
       id="clipPath4214-68-2-7-5-36-9"
       clipPathUnits="userSpaceOnUse">
      <path
         style="opacity:1;fill:#000097;fill-opacity:0.43956;fill-rule:nonzero;stroke:none;stroke-width:0.2;stroke-linecap:butt;stroke-linejoin:round;stroke-miterlimit:4;stroke-dasharray:none;stroke-dashoffset:0;stroke-opacity:1"
         d="m 421.00002,99.005054 81.7857,-24.285716 c 40.85158,12.42505 85.72903,18.81128 116.69682,46.062012 0,0 29.04832,119.93549 -24.95168,102.93549 -69.10764,49.40924 -152.04137,57.53411 -231.30506,37.23846 z"
         id="path4216-11-69-1-95-8-8"
         inkscape:connector-curvature="0"
         sodipodi:nodetypes="cccccc" />
    </clipPath>
  </defs>
  <sodipodi:namedview
     id="base"
     pagecolor="#ffffff"
     bordercolor="#666666"
     borderopacity="1.0"
     inkscape:pageopacity="0.0"
     inkscape:pageshadow="2"
     inkscape:zoom="1.4"
     inkscape:cx="41.785714"
     inkscape:cy="73.928571"
     inkscape:document-units="px"
     inkscape:current-layer="layer1"
     showgrid="false"
     inkscape:window-width="1648"
     inkscape:window-height="978"
     inkscape:window-x="1094"
     inkscape:window-y="34"
     inkscape:window-maximized="0"
     inkscape:pagecheckerboard="0"
     showguides="true"
     inkscape:guide-bbox="true"
     fit-margin-top="0"
     fit-margin-left="0"
     fit-margin-right="0"
     fit-margin-bottom="0" />
  <metadata
     id="metadata7">
    <rdf:RDF>
      <cc:Work
         rdf:about="">
        <dc:format>image/svg+xml</dc:format>
        <dc:type
           rdf:resource="http://purl.org/dc/dcmitype/StillImage" />
      </cc:Work>
    </rdf:RDF>
  </metadata>
  <g
     inkscape:label="Layer 1"
     inkscape:groupmode="layer"
     id="layer1"
     transform="translate(0.14414437,0.03548148)">
    <g
       id="layer2"
       inkscape:label="bg"
       style="display:none"
       transform="translate(45.414645,-179.35327)">
      <rect
         style="fill:#aaaaaa;fill-opacity:1;fill-rule:nonzero;stroke:none"
         id="rect4569"
         width="631.44635"
         height="795.18292"
         x="1.6271136"
         y="0.96922725" />
    </g>
    <g
       id="g4266"
       transform="translate(45.414645,-179.35327)" />
    <g
       id="g4177"
       transform="matrix(0.47836918,0,0,0.47836918,80.154635,137.17062)"
       inkscape:export-xdpi="99.895355"
       inkscape:export-ydpi="99.895355" />
    <g
       transform="matrix(0.68788152,0,0,0.68788152,0.2698,54.64953)"
       id="g4691">
      <g
         style="fill:#ffeb00;fill-opacity:0.857143"
         id="g4697"
         transform="translate(-67.432681,190.2693)" />
    </g>
    <g
       id="g7180"
       transform="translate(-253.4722,-145.9453)">
      <rect
         y="229.7605"
         x="234.43077"
         height="81.958321"
         width="24.316362"
         id="rect5264-3"
         style="opacity:0.98;fill:#00ffff;fill-opacity:0.857143;fill-rule:nonzero;stroke:none;stroke-width:0.909059"
         transform="rotate(-14.886098)" />
      <rect
         y="-46.298431"
         x="403.60843"
         height="92.528595"
         width="24.316376"
         id="rect6501"
         style="opacity:0.98;fill:#ff8000;fill-opacity:0.857143;fill-rule:nonzero;stroke:none;stroke-width:0.909059"
         transform="rotate(28.705794)" />
      <rect
         y="148.21478"
         x="325.99988"
         height="81.958321"
         width="24.316362"
         id="rect6499"
         style="opacity:0.98;fill:#ffeb00;fill-opacity:0.857143;fill-rule:nonzero;stroke:none;stroke-width:0.909059"
         transform="rotate(-0.25079006)" />
      <path
         style="fill:#000000;fill-opacity:1;stroke:#000000;stroke-width:2.09044px;stroke-linecap:butt;stroke-linejoin:miter;stroke-opacity:1"
         d="m 486.37799,73.036333 h -22.9834 V 54.894608 l -25.02411,21.717228 25.02411,21.004963 V 79.257043 l 22.9834,0.114272 z"
         id="path4420"
         sodipodi:nodetypes="cccccccc"
         transform="matrix(0.47836918,0,0,0.47836918,80.154635,137.17062)" />
      <path
         style="fill:#000000;fill-opacity:1;stroke:#000000;stroke-width:2.09044px;stroke-linecap:butt;stroke-linejoin:miter;stroke-opacity:1"
         d="m 540.41419,67.886196 v -22.9834 h 18.14173 l -21.71723,-25.02411 -21.00496,25.02411 h 18.35975 l -0.11427,22.9834 z"
         id="path6020"
         sodipodi:nodetypes="cccccccc"
         transform="matrix(0.47836918,0,0,0.47836918,80.154635,137.17062)" />
      <path
         style="fill:#000000;fill-opacity:1;stroke:#000000;stroke-width:2.09044px;stroke-linecap:butt;stroke-linejoin:miter;stroke-opacity:1"
         d="m 604.91468,80.983895 h 22.9834 v 18.14173 l 25.02411,-21.71723 -25.02411,-21.00496 v 18.35975 l -22.9834,-0.11427 z"
         id="path6022"
         sodipodi:nodetypes="cccccccc"
         transform="matrix(0.47836918,0,0,0.47836918,80.154635,137.17062)" />
      <path
         style="fill:#000000;fill-opacity:1;stroke:#000000;stroke-width:2.09044px;stroke-linecap:butt;stroke-linejoin:miter;stroke-opacity:1"
         d="m 382.44067,222.14645 v 22.9834 h -18.14173 l 21.71723,25.02411 21.00496,-25.02411 h -18.35975 l 0.11427,-22.9834 z"
         id="path6024"
         sodipodi:nodetypes="cccccccc"
         transform="matrix(0.47836918,0,0,0.47836918,80.154635,137.17062)" />
      <path
         style="fill:#000000;fill-opacity:1;stroke:none;stroke-width:0.478369"
         d="m 334.35012,309.13405 c -0.29341,-1.42056 -1.05856,-2.91754 -3.17167,-6.20523 -3.7531,-5.83927 -4.33433,-6.52191 -7.4031,-8.69462 -2.32737,-1.6478 -2.92581,-2.2958 -4.92589,-5.33379 -1.25216,-1.90195 -2.64255,-4.09102 -3.08975,-4.86459 -0.4472,-0.77358 -2.71573,-3.29951 -5.04117,-5.6132 -2.32545,-2.31369 -4.67085,-4.82819 -5.212,-5.58779 -1.03913,-1.45857 -2.51911,-2.75744 -5.1956,-4.55979 -0.8944,-0.60229 -2.35386,-1.60625 -3.24326,-2.23101 -0.88939,-0.62477 -2.40146,-1.36398 -3.36015,-1.64268 -1.51899,-0.44158 -2.16832,-0.93924 -5.05079,-3.87103 -3.1945,-3.24916 -3.39118,-3.38916 -5.74649,-4.09046 -3.16751,-0.94314 -5.44602,-1.9076 -5.62304,-2.38015 -0.26124,-0.69733 0.28837,-3.70516 0.82734,-4.52774 0.29392,-0.44857 1.1909,-1.13339 1.99329,-1.52182 1.22424,-0.59264 1.78929,-0.67229 3.51316,-0.49518 1.12985,0.11608 2.56652,0.34609 3.1926,0.51114 0.62608,0.16504 2.16283,0.44693 3.41499,0.62643 3.48528,0.49962 5.31928,1.22297 7.80569,3.07867 1.25217,0.93453 3.08163,2.19076 4.06547,2.79162 0.98384,0.60086 2.24275,1.39753 2.79757,1.77038 0.55482,0.37284 2.26644,1.2383 3.80361,1.92324 l 2.79484,1.24533 1.72543,-0.89172 c 3.86884,-1.99949 4.21632,-3.02503 3.07181,-9.06618 -0.44564,-2.35226 -0.90431,-4.93544 -1.01925,-5.7404 -0.48222,-3.37697 -2.36091,-8.3301 -5.43191,-14.32115 -2.24509,-4.37981 -2.26068,-4.4285 -3.17735,-9.91974 -0.50665,-3.03507 -1.4597,-7.56731 -2.11788,-10.07164 -2.3674,-9.00771 -1.77149,-16.36193 1.52379,-18.8053 1.30717,-0.96923 4.02993,-1.09172 5.38288,-0.24215 2.15487,1.35312 3.28855,4.18291 4.96373,12.3901 1.39884,6.85333 2.42406,10.16565 4.07807,13.17564 0.63347,1.15279 2.23614,4.90211 3.56149,8.33182 1.3739,3.55535 2.81389,6.73685 3.34997,7.4014 1.00134,1.2413 2.3563,1.66287 3.17112,0.98663 0.67139,-0.55721 0.59885,-4.12486 -0.14847,-7.30151 -1.32318,-5.62448 -1.39938,-6.73866 -1.03419,-15.12148 0.77179,-17.71635 1.20085,-22.23773 2.3181,-24.42773 1.13123,-2.2174 1.90897,-2.57039 5.63743,-2.55867 3.67209,0.0115 4.01999,0.15788 5.03486,2.11773 1.05508,2.03749 1.1683,4.89616 0.39682,10.01936 -0.97907,6.50176 -0.92796,7.68536 0.82453,19.09328 0.70429,4.58458 0.81111,6.23697 0.71918,11.12437 -0.0958,5.09569 -0.0448,5.80354 0.4545,6.30587 0.53428,0.5375 0.60142,0.52925 1.33989,-0.16451 0.81327,-0.76403 1.969,-4.24585 2.28241,-6.87608 0.0959,-0.80496 0.83452,-3.03722 1.64134,-4.96056 2.08201,-4.96322 2.47387,-6.44536 2.77296,-10.48821 0.20717,-2.8003 0.51407,-4.28425 1.41257,-6.82998 2.96896,-8.41212 3.72305,-10.11494 5.22119,-11.78985 0.55857,-0.62446 0.98251,-0.73178 2.89068,-0.73178 2.65813,0 3.81705,0.51252 4.95902,2.19307 1.07699,1.58494 1.0862,3.78364 0.0322,7.71013 -0.43455,1.61902 -0.94758,4.012 -1.14006,5.31775 -0.19251,1.30575 -0.79592,3.86699 -1.34095,5.69165 -0.76626,2.56529 -1.09433,4.57815 -1.44682,8.87676 -0.54614,6.65965 -0.97305,8.8261 -2.74994,13.95504 -2.29817,6.63356 -2.13343,6.94294 1.1689,2.19535 1.21316,-1.74408 3.18293,-4.20656 4.3772,-5.47217 1.1943,-1.26561 2.42917,-2.80236 2.7441,-3.41499 0.31492,-0.61264 1.11627,-1.91884 1.78076,-2.90269 0.6645,-0.98384 1.50787,-2.37829 1.87415,-3.09878 0.36631,-0.72048 1.60202,-2.33041 2.74604,-3.57761 1.14403,-1.24719 2.4132,-2.7455 2.82043,-3.32956 1.37299,-1.96928 3.82293,-2.5776 6.07572,-1.50858 1.29477,0.61442 1.3898,0.88149 1.39468,3.91937 0.003,2.23724 -0.0699,2.45716 -1.95441,5.85427 -1.07696,1.94134 -2.34746,4.01843 -2.82332,4.61576 -2.03508,2.55448 -2.99192,4.09592 -3.33085,5.3658 -0.51905,1.94492 -2.97895,6.32841 -4.89687,8.72624 -1.85499,2.31914 -3.18111,5.02873 -4.34364,8.87514 -1.23457,4.0848 -1.50721,6.57691 -1.276,11.66394 0.28087,6.18001 -0.44808,12.58165 -1.87656,16.47957 -1.16767,3.18625 -1.24546,4.29215 -0.49221,6.99642 0.29896,1.07328 0.747,3.12228 0.99571,4.55333 0.46298,2.66434 1.85939,5.82035 5.00358,11.30858 1.38873,2.42403 1.58338,3.48971 0.6375,3.48971 -0.46503,0 -2.776,-3.99614 -5.20956,-9.00837 -0.89798,-1.84948 -1.59089,-3.83604 -1.81514,-5.2038 -0.19947,-1.21677 -0.68316,-3.49609 -1.07485,-5.06516 -0.79621,-3.18962 -0.72765,-3.84552 0.86816,-8.30588 1.14688,-3.20555 1.65634,-8.15161 1.53066,-14.86025 -0.0608,-3.24818 0.059,-6.60238 0.29047,-8.13093 0.42014,-2.77436 2.12354,-8.06796 3.41831,-10.62307 0.78161,-1.54244 0.78229,-1.55259 0.12649,-1.90357 -0.85463,-0.45739 -0.47079,-1.07614 0.54692,-0.8816 0.70615,0.13499 0.73809,0.0966 0.31245,-0.37592 -0.26074,-0.28945 -0.57457,-0.92876 -0.69734,-1.42068 -0.31343,-1.256 0.60504,-1.2012 1.36261,0.0813 0.57837,0.97906 0.81537,1.13854 1.168,0.7859 0.2326,-0.23262 -1.01793,-2.41209 -1.38402,-2.41209 -0.14447,0 -0.18613,-0.29271 -0.0926,-0.65047 0.25531,-0.97633 0.89466,-0.78573 1.56982,0.46796 0.33129,0.61514 0.70739,1.05351 0.83576,0.97416 0.39718,-0.24546 2.77909,-4.78472 3.23133,-6.15806 0.49452,-1.50162 0.47156,-2.66773 -0.0653,-3.31458 -0.26498,-0.31927 -0.27424,-0.55511 -0.0312,-0.798 0.35435,-0.35435 -0.0803,-1.08558 -1.29926,-2.18568 -0.61515,-0.55518 -0.7644,-1.34482 -0.25414,-1.34482 0.17326,0 0.23645,-0.20473 0.14044,-0.45495 -0.096,-0.25023 -0.0101,-0.55672 0.19131,-0.6811 0.54965,-0.3397 1.85602,0.0835 2.08291,0.67474 0.31288,0.81538 -0.0884,1.15457 -0.87931,0.74329 -0.66101,-0.34371 -0.65376,-0.30659 0.10105,0.51788 0.81375,0.88887 2.2816,1.80204 2.89663,1.80204 0.17985,0 0.91993,-1.0152 1.64463,-2.256 1.87762,-3.21499 1.89034,-3.27303 0.71575,-3.27303 -2.13798,0 -2.59104,-2.4345 -1.02893,-5.52903 0.53665,-1.06309 0.97572,-2.0185 0.97572,-2.12316 0,-0.44259 -1.92466,0.99261 -2.23009,1.66297 -0.18376,0.40328 -1.28183,1.73789 -2.44019,2.96579 -1.15833,1.2279 -2.67043,3.17886 -3.36022,4.33548 -1.95354,3.27557 -3.02773,4.98384 -5.23811,8.33023 -2.24576,3.39992 -3.7696,7.19797 -5.103,12.71903 -0.97123,4.02133 -1.86852,5.93433 -2.78348,5.93433 -0.71474,0 -1.15879,-0.87685 -1.48861,-2.93953 -0.24016,-1.5018 0.83999,-4.56121 2.04945,-5.80492 0.41513,-0.42687 0.75477,-0.89056 0.75477,-1.03042 0,-0.13986 0.10216,-0.52056 0.22705,-0.846 0.13221,-0.34456 -0.17342,-0.165 -0.73178,0.42991 -1.35299,1.44155 -2.5699,1.65795 -3.27468,0.58232 -0.60556,-0.92419 -0.63861,-0.76123 1.15101,-5.67751 1.70554,-4.68527 2.58609,-8.9092 2.98324,-14.31044 0.20389,-2.77265 0.64241,-6.06567 0.97448,-7.31784 0.33206,-1.25216 0.9035,-3.37433 1.26988,-4.71593 0.36635,-1.34161 0.79036,-3.54734 0.94225,-4.90162 0.15189,-1.35429 0.44167,-2.77164 0.644,-3.14968 0.69506,-1.29871 0.36732,-1.53078 -0.45429,-0.32168 -0.95971,1.41235 -2.0126,1.77107 -3.70767,1.26322 -2.48537,-0.74463 -3.11883,-2.69974 -2.01247,-6.21101 0.36397,-1.15505 0.61115,-2.15065 0.54936,-2.21246 -0.2347,-0.23469 -1.4653,2.13674 -2.40666,4.63778 -2.84807,7.56678 -3.30893,9.15629 -3.31124,11.42101 -0.003,3.01334 -0.98876,6.96356 -2.91217,11.67083 -1.90335,4.65813 -2.72128,9.08213 -3.08529,16.68755 -0.0992,2.07249 -0.80549,3.32049 -1.87365,3.31068 -0.57175,-0.005 -2.34343,-3.36429 -2.82839,-5.36256 -0.21707,-0.8944 -0.53614,-2.16793 -0.70904,-2.83006 -0.1729,-0.66212 -0.29075,-3.95515 -0.26188,-7.31784 0.0387,-4.51031 -0.0921,-6.92437 -0.49867,-9.20371 -1.22067,-6.84296 -1.71414,-14.31611 -1.20267,-18.21328 0.19954,-1.52049 0.45136,-3.42313 0.55959,-4.22809 l 0.19679,-1.46357 -0.85259,1.21152 c -1.45385,2.0659 -3.15063,2.44817 -5.08389,1.14535 -1.66283,-1.12058 -2.37412,-2.62056 -2.57636,-5.433 l -0.17638,-2.4529 -0.58198,1.62619 c -0.34891,0.97491 -0.70819,3.38463 -0.8971,6.01689 -0.52992,7.38386 -1.23781,24.1711 -1.06288,25.20588 0.0907,0.53664 0.60485,3.17106 1.14252,5.85427 1.08859,5.4326 1.08606,7.46308 -0.0112,8.94713 -0.38105,0.5154 -0.6183,1.13128 -0.52722,1.36863 0.0911,0.23734 -0.20316,1.19594 -0.65387,2.13021 -0.4507,0.93426 -0.81946,1.85646 -0.81946,2.04934 0,0.19288 -0.25322,0.30191 -0.5627,0.24231 -0.39956,-0.0769 -0.59146,-0.48458 -0.66192,-1.4061 -0.0753,-0.98486 -0.33173,-1.47986 -1.0635,-2.0531 -0.53034,-0.41545 -0.96425,-0.90156 -0.96425,-1.08025 0,-0.17869 -0.21954,-0.54443 -0.48786,-0.81275 -0.62804,-0.62804 -0.64392,-1.54659 -0.0226,-1.30817 0.2956,0.11343 0.18627,-0.23256 -0.29985,-0.9489 -0.4208,-0.62008 -1.16078,-2.18492 -1.64441,-3.47741 -2.54853,-6.81098 -3.83749,-9.92633 -4.87343,-11.77875 -1.29833,-2.32163 -2.86964,-6.73175 -3.2108,-9.01157 -0.18527,-1.2381 -0.33021,-1.48902 -0.76397,-1.32257 -0.34119,0.13092 -0.39385,0.25258 -0.14523,0.33546 0.94264,0.31421 0.32243,1.30465 -1.34537,2.14848 -1.98509,1.00438 -4.11877,1.46765 -4.11877,0.89428 0,-0.26822 -0.17554,-0.26092 -0.63568,0.0265 -0.34963,0.21834 -0.72888,0.30379 -0.84279,0.18988 -0.41976,-0.41976 0.23346,-1.52236 1.08682,-1.83449 0.80672,-0.29508 0.81895,-0.32382 0.14772,-0.34738 -1.00638,-0.0353 -0.93172,-0.93881 0.099,-1.1975 0.45691,-0.11468 1.33237,-0.1271 1.94546,-0.0276 1.09283,0.17734 1.85243,-0.21134 1.04735,-0.53591 -0.32468,-0.1309 -0.3251,-0.16999 -0.002,-0.1904 0.22353,-0.0141 0.40647,-0.24521 0.40647,-0.51353 0,-0.3499 0.35718,-0.48785 1.26317,-0.48785 h 1.26316 l -0.4301,-2.19536 c -0.23655,-1.20744 -0.5371,-2.70372 -0.66788,-3.32506 l -0.23778,-1.12972 -0.37433,1.11177 c -1.06163,3.15307 -5.87952,3.43409 -7.80236,0.45509 -1.56527,-2.42503 -1.50239,-2.48074 -1.33245,1.18043 0.1156,2.49035 0.47345,4.60382 1.32164,7.80569 0.63972,2.41489 1.6006,6.94894 2.1353,10.07567 l 0.97218,5.68496 2.73878,5.53572 c 3.29099,6.65185 4.23169,9.35358 5.26813,15.13022 1.40955,7.85621 1.53253,8.95218 1.15586,10.30048 -0.50045,1.79134 -1.30911,3.9656 -2.05683,5.53024 -0.52107,1.09038 -0.64713,2.01881 -0.6403,4.71594 0.005,1.84705 0.15872,4.14662 0.34234,5.11016 0.41137,2.15868 0.42229,1.98834 -0.12748,1.98834 -0.84186,0 -1.8284,-2.18411 -2.44888,-5.42162 -0.33701,-1.75844 -0.91382,-3.89533 -1.28182,-4.74864 -0.63787,-1.47911 -0.81483,-1.61913 -3.79421,-3.00195 -3.66551,-1.70129 -7.29059,-3.87737 -10.183,-6.11274 -2.63689,-2.03789 -4.13439,-2.69019 -7.54281,-3.28562 -1.51041,-0.26385 -3.40482,-0.63186 -4.20978,-0.81779 -0.80496,-0.18593 -2.29388,-0.34163 -3.30872,-0.346 -1.51744,-0.007 -2.0229,0.1416 -2.84583,0.83405 -1.23066,1.03553 -1.26616,1.43466 -0.1276,1.43466 3.20618,0 6.93263,2.25249 6.93263,4.1905 0,1.16449 4.35253,5.9085 4.6676,5.08743 0.1048,-0.27309 0.40603,-0.49653 0.66941,-0.49653 0.77445,0 0.99028,0.71376 0.35606,1.17751 -0.48333,0.35342 -0.51351,0.51545 -0.17248,0.92637 0.92567,1.11536 1.85978,-0.0343 1.41374,-1.73994 -0.16123,-0.61655 -0.0846,-0.73191 0.4183,-0.62991 0.51514,0.10449 0.60868,0.39777 0.57284,1.79601 -0.0376,1.46917 0.0438,1.69287 0.67382,1.851 0.81359,0.2042 8.31643,5.33133 9.72945,6.64871 0.5107,0.47613 1.48338,1.67679 2.1615,2.66813 0.67813,0.99132 1.82592,2.21334 2.55064,2.71558 2.03213,1.40826 8.18189,8.51049 8.18189,9.44908 0,0.43529 2.9956,4.89944 4.01708,5.98641 0.56325,0.59936 1.82906,1.64655 2.8129,2.32709 2.5923,1.79313 4.11756,3.54538 7.12871,8.18966 2.65148,4.08954 3.64753,6.16088 4.05677,8.43625 0.19434,1.08056 0.14831,1.17898 -0.55149,1.17898 -0.668,0 -0.8119,-0.23423 -1.15023,-1.87221 z m -12.08567,-17.03303 c 0,-0.0675 -0.25612,-0.32366 -0.56916,-0.56916 -0.51584,-0.40455 -0.52735,-0.39305 -0.1228,0.1228 0.42488,0.54176 0.69196,0.71405 0.69196,0.44636 z m -10.73283,-14.31043 c 0,-0.0675 -0.25612,-0.32366 -0.56916,-0.56917 -0.51584,-0.40455 -0.52735,-0.39304 -0.1228,0.1228 0.42489,0.54176 0.69196,0.71405 0.69196,0.44637 z m 3.14931,-8.39435 c -0.10382,-0.25946 -0.18089,-0.18239 -0.19649,0.1965 -0.0141,0.34285 0.0627,0.53494 0.17082,0.42687 0.10807,-0.10808 0.11963,-0.3886 0.0256,-0.62337 z m -0.0608,-4.60185 c 0.0871,-2.23398 0.31073,-3.78447 0.63688,-4.41516 0.62506,-1.20874 0.62702,-1.3569 0.0148,-1.12198 -0.26832,0.10296 -0.48785,0.0249 -0.48785,-0.17346 0,-0.21223 -0.5,-0.0927 -1.21483,0.29044 -0.66815,0.35811 -1.37493,0.65111 -1.57061,0.65111 -0.19568,0 0.0531,0.84155 0.55283,1.87011 0.49974,1.02857 1.0881,2.92765 1.30747,4.2202 0.21937,1.29254 0.4502,2.29872 0.51297,2.23596 0.0628,-0.0628 0.17451,-1.66351 0.24832,-3.55722 z m -22.928,-2.27937 c 0,-0.0617 -0.32931,-0.39102 -0.73179,-0.73178 l -0.73178,-0.61957 0.61957,0.73178 c 0.58225,0.6877 0.844,0.87984 0.844,0.61957 z m 74.70151,-1.24972 c -0.10385,-0.25944 -0.1809,-0.18238 -0.19651,0.1965 -0.014,0.34286 0.0627,0.53495 0.17081,0.42688 0.10808,-0.10808 0.11962,-0.3886 0.0257,-0.62338 z m -77.62865,-2.00265 c 0,-0.0617 -0.3293,-0.39101 -0.73178,-0.73178 l -0.73178,-0.61958 0.61957,0.73179 c 0.58224,0.68769 0.84399,0.87985 0.84399,0.61957 z m -3.76932,-4.48633 c -1.30807,-1.47292 -5.82518,-2.70115 -5.82518,-1.58391 0,0.32478 1.02032,0.8186 3.08976,1.49541 1.69936,0.55578 3.14984,0.96048 3.22327,0.89934 0.0734,-0.0611 -0.1461,-0.42601 -0.48785,-0.81084 z m 76.1034,-7.51654 c 0.28077,-0.76025 0.94143,-2.99219 1.46815,-4.95987 0.52672,-1.96768 1.06831,-3.87032 1.20351,-4.22808 0.21449,-0.56751 0.17888,-0.59606 -0.27919,-0.22378 -0.28877,0.23468 -0.74521,1.07283 -1.01428,1.86255 -0.2691,0.78973 -0.8652,1.92874 -1.32466,2.53114 -0.4595,0.6024 -0.83544,1.26956 -0.83544,1.48257 0,0.21301 -0.20594,0.71144 -0.45764,1.10763 -0.37012,0.58254 -0.38706,1.01588 -0.0887,2.26522 0.20295,0.84968 0.46996,1.54488 0.59339,1.54488 0.12343,0 0.4541,-0.62202 0.73485,-1.38226 z m -13.46979,-10.97676 c 0.006,-0.62608 0.0978,-1.72376 0.20405,-2.43928 l 0.19324,-1.30095 -1.15595,1.21964 c -0.63577,0.67081 -1.38295,1.21964 -1.66039,1.21964 -0.71459,0 -0.63167,0.49089 0.38992,2.30825 l 0.89435,1.59101 0.56199,-0.72999 c 0.30908,-0.40149 0.56684,-1.24224 0.57279,-1.86832 z m -17.48608,-1.49766 c -0.10749,-0.56229 -0.36456,-0.779 -0.92409,-0.779 -0.47222,0 -0.77518,0.19066 -0.77518,0.48786 0,0.26832 -0.15555,0.48785 -0.34567,0.48785 -0.19013,0 0.066,0.42137 0.56916,0.93638 0.8842,0.90502 0.92673,0.91477 1.26977,0.29114 0.19521,-0.35487 0.28791,-0.99578 0.20601,-1.42423 z m 15.45022,-0.9755 c -0.10807,-0.10807 -0.38859,-0.11962 -0.62337,-0.0257 -0.25945,0.10382 -0.18239,0.18089 0.19649,0.19649 0.34286,0.0141 0.53496,-0.0627 0.42688,-0.17082 z m 32.17435,-5.80636 c -0.10593,-0.27604 -0.34869,-0.50189 -0.53947,-0.50189 -0.24055,0 -0.2356,0.20799 0.0163,0.67834 0.40372,0.75435 0.82588,0.61201 0.52331,-0.17645 z m -34.13754,-3.992 c -0.0825,-0.31644 -0.15535,-0.13628 -0.16198,0.40036 -0.007,0.53665 0.0608,0.79555 0.14993,0.57536 0.0891,-0.2202 0.0945,-0.65927 0.0121,-0.97572 z m 39.44027,-4.84217 c 0.5568,-0.46851 1.22735,-1.26758 1.49011,-1.7757 0.45575,-0.88131 0.42993,-0.97832 -0.56049,-2.10635 l -1.03825,-1.18249 -1.06158,2.06379 c -1.16503,2.26485 -1.28911,2.87606 -0.70286,3.4623 0.54688,0.5469 0.72749,0.50239 1.87307,-0.46155 z m -6.65406,-1.42483 c 0.69867,-0.71552 1.19713,-1.30095 1.10772,-1.30095 -0.0894,0 -0.73428,0.58543 -1.43296,1.30095 -0.69871,0.71552 -1.19716,1.30095 -1.10773,1.30095 0.0894,0 0.73426,-0.58543 1.43297,-1.30095 z m 8.94402,-2.70782 c 0,-0.0583 -0.40248,-0.46074 -0.8944,-0.89441 l -0.8944,-0.78847 0.78847,0.8944 c 0.73695,0.83596 1.00033,1.04355 1.00033,0.78848 z m -31.64789,-7.28703 c -0.0824,-0.31645 -0.15533,-0.13629 -0.16197,0.40035 -0.007,0.53664 0.0608,0.79555 0.14994,0.57536 0.0891,-0.2202 0.0945,-0.65927 0.012,-0.97571 z m -23.42028,-0.14849 c -0.10382,-0.25945 -0.18089,-0.18238 -0.19649,0.1965 -0.0141,0.34286 0.0627,0.53495 0.17082,0.42688 0.10807,-0.10808 0.11962,-0.38859 0.0256,-0.62338 z m -18.54787,-8.19324 0.89956,-0.77378 -0.34626,-2.79481 c -0.42905,-3.46308 -0.75707,-3.9228 -2.61701,-3.66787 -0.76354,0.10465 -1.90348,0.40555 -2.5332,0.66867 -1.09686,0.4583 -1.14494,0.54782 -1.14494,2.13161 0,1.85653 0.58648,3.51977 1.59767,4.53097 0.96268,0.96268 2.96812,0.91681 4.14418,-0.0948 z m 51.9407,-0.0387 c 0.26803,-0.268 0.95233,-1.47151 1.52068,-2.67446 1.16103,-2.45731 1.0861,-2.86533 -0.68296,-3.71868 -2.523,-1.21704 -2.45642,-1.25254 -3.41483,1.82138 -0.82513,2.64649 -0.84064,2.82053 -0.32205,3.61201 0.47046,0.71801 1.45271,1.35744 2.19119,1.42642 0.12137,0.0113 0.43998,-0.19866 0.70797,-0.46667 z m 3.55494,-5.37205 c -0.0943,-0.36055 -0.32273,-0.74906 -0.50766,-0.86335 -0.18493,-0.11429 -0.26298,-0.0754 -0.17348,0.0864 0.0895,0.1618 0.25385,0.5503 0.36528,0.86334 0.27954,0.78553 0.52623,0.71807 0.31586,-0.0864 z m -27.15944,-2.7134 c 0.41416,-0.83049 0.83751,-2.22345 0.94079,-3.09548 0.16024,-1.35289 0.0813,-1.69197 -0.53794,-2.31122 -0.64008,-0.64008 -0.9882,-0.71089 -2.95018,-0.60003 -1.22345,0.0691 -2.33392,0.23516 -2.4677,0.36894 -0.13378,0.13378 -0.24716,1.22711 -0.25194,2.42963 -0.0104,2.62038 0.68662,4.15351 2.17255,4.7783 1.42137,0.59764 2.21391,0.19549 3.09442,-1.57014 z m 26.41608,0.96948 c 0,-0.0675 -0.25612,-0.32366 -0.56916,-0.56916 -0.51586,-0.40456 -0.52738,-0.39305 -0.12281,0.12279 0.42489,0.54177 0.69197,0.71405 0.69197,0.44637 z m -24.49587,-1.56437 c -0.10382,-0.25945 -0.18089,-0.18239 -0.19649,0.1965 -0.0141,0.34285 0.0627,0.53495 0.17082,0.42687 0.10807,-0.10807 0.11962,-0.38859 0.0256,-0.62337 z m 20.07164,0.33201 c -0.0921,-0.14906 -0.3052,-0.27103 -0.47355,-0.27103 -0.16831,0 -0.30601,0.12197 -0.30601,0.27103 0,0.14907 0.21309,0.27103 0.47354,0.27103 0.26045,0 0.39816,-0.12196 0.30602,-0.27103 z m -27.87733,-5.21057 c -0.10382,-0.25945 -0.18089,-0.18238 -0.1965,0.1965 -0.0141,0.34285 0.0627,0.53495 0.17082,0.42687 0.10808,-0.10807 0.11963,-0.38859 0.0256,-0.62337 z m 24.08929,56.43686 c 0.2236,-0.0902 0.58949,-0.0902 0.81309,0 0.22361,0.0902 0.0407,0.16404 -0.40654,0.16404 -0.4472,0 -0.63015,-0.0738 -0.40655,-0.16404 z m 0,-0.65048 c 0.2236,-0.0902 0.58949,-0.0902 0.81309,0 0.22361,0.0902 0.0407,0.16405 -0.40654,0.16405 -0.4472,0 -0.63015,-0.0738 -0.40655,-0.16405 z m 9.83846,-5.00977 c 0,-0.5484 0.13943,-1.25767 0.30989,-1.57615 0.32965,-0.61597 3.17366,-1.85731 3.50228,-1.52866 0.26487,0.26486 -0.83079,1.43895 -1.55831,1.66986 -0.32313,0.10255 -0.75426,0.69172 -0.95805,1.30925 -0.46919,1.42166 -1.29581,1.50184 -1.29581,0.1257 z m -53.40008,-6.65294 c -0.37937,-0.37937 0.10451,-1.13138 0.72799,-1.13138 0.68768,0 1.60983,-1.16774 1.60983,-2.03857 0,-0.63579 1.37428,-2.18951 1.93664,-2.18951 0.47177,0 0.42515,0.66024 -0.0901,1.27534 -0.23653,0.28241 -0.62654,1.13758 -0.86669,1.90038 -0.24014,0.7628 -0.60939,1.53031 -0.82056,1.70556 -0.51328,0.42598 -2.22213,0.75321 -2.49716,0.47818 z m 41.14062,-1.01545 c -0.21355,-0.0869 -0.31333,-0.35323 -0.22175,-0.59189 0.0916,-0.23868 0.0101,-0.53057 -0.18089,-0.64866 -0.57379,-0.35461 -0.39296,-1.29235 0.3371,-1.74828 0.37647,-0.23512 0.59363,-0.28044 0.48256,-0.10071 -0.11107,0.17972 -0.0532,0.4187 0.12856,0.53106 0.18181,0.11235 0.33054,-0.0153 0.33054,-0.28357 0,-0.26832 -0.14635,-0.57831 -0.32523,-0.68886 -0.54491,-0.33678 -0.36336,-0.8131 0.30995,-0.8131 0.34933,0 1.02039,0.17553 1.49124,0.39006 0.70681,0.32204 0.82477,0.5467 0.67643,1.28834 -0.0988,0.49405 -0.0381,0.98577 0.13494,1.0927 0.17303,0.10693 0.31457,0.41791 0.31457,0.69106 0,0.37011 -0.3107,0.47792 -1.21964,0.4232 -1.80991,-0.10897 -2.32834,0.006 -1.54487,0.34272 0.68644,0.29498 0,0.40643 -0.71351,0.11593 z m -44.65707,-1.54185 c 0,-0.59364 0.71429,-0.85074 2.36361,-0.85074 0.87659,0 1.56687,-0.21812 2.01116,-0.6355 0.89122,-0.83726 1.72022,-0.422 1.17845,0.5903 -0.39855,0.7447 -0.83345,0.88236 -3.68311,1.16582 -1.47571,0.14678 -1.87011,0.0899 -1.87011,-0.26988 z m 9.89672,-0.44419 c -0.69849,-3.15481 -1.24998,-3.84967 -2.93984,-3.70408 -0.89003,0.0767 -1.06354,-0.003 -0.90453,-0.41783 0.31284,-0.81524 -1.7346,-0.65381 -2.9319,0.23116 -0.55352,0.40913 -1.37897,0.97832 -1.83432,1.26487 -0.77408,0.48714 -0.83081,0.48247 -0.87255,-0.0717 -0.0245,-0.32598 0.16506,-0.76674 0.42136,-0.97946 0.25631,-0.21271 0.46377,-0.62496 0.46103,-0.91609 -0.004,-0.46058 -0.0459,-0.46597 -0.32026,-0.0415 -0.18438,0.28532 -0.31734,0.32887 -0.32026,0.10492 -0.006,-0.46617 1.5473,-1.7311 2.12583,-1.7311 0.22928,0 0.4686,0.15514 0.53181,0.34476 0.0729,0.21881 0.46896,0.1491 1.08412,-0.19084 l 0.9692,-0.5356 -0.97571,0.17747 -0.97571,0.17748 0.97571,-0.45982 c 0.53664,-0.2529 1.35846,-0.46642 1.82625,-0.47449 1.04539,-0.018 2.56445,1.12258 2.56445,1.92556 0,0.32564 0.2187,0.676 0.486,0.77857 0.2673,0.10256 0.779,0.66706 1.13711,1.25443 0.80382,1.31838 0.9212,4.1577 0.17189,4.1577 -0.26491,0 -0.57076,-0.40248 -0.67968,-0.8944 z m 14.08952,0.0198 c -0.86653,-0.22645 -0.6949,-1.07675 0.21733,-1.07675 1.12275,0 1.81541,0.3235 1.81541,0.84789 0,0.44389 -0.84559,0.53909 -2.03274,0.22886 z m 0.30698,-1.60997 c -0.331,-0.33101 0.0839,-0.76773 0.72942,-0.76773 0.3253,0 0.77365,-0.21954 0.99634,-0.48786 0.34889,-0.42039 0.21724,-0.48786 -0.95204,-0.48786 -1.72689,0 -3.12926,-0.72416 -3.7584,-1.94078 -0.59102,-1.1429 -0.64481,-2.98146 -0.10307,-3.5232 0.30355,-0.30355 0.21321,-0.39537 -0.40655,-0.41315 -0.73614,-0.0211 -0.74729,-0.0442 -0.14636,-0.30237 0.65048,-0.27952 0.65048,-0.27952 0,-0.31511 -0.4838,-0.0265 -0.37376,-0.15578 0.42949,-0.50466 0.59397,-0.25799 0.99448,-0.60737 0.89001,-0.77641 -0.24379,-0.39446 3.05202,-0.81233 4.68229,-0.59366 1.22109,0.16378 2.617,1.18106 2.617,1.90715 0,0.24402 -0.41045,0.29995 -1.21964,0.1662 -0.6708,-0.11087 -1.43918,-0.20544 -1.7075,-0.21015 -0.41724,-0.007 -0.4205,-0.0512 -0.0225,-0.30305 0.62132,-0.39318 -1.69142,-0.84609 -2.49563,-0.48873 -0.45213,0.20091 -0.33368,0.3014 0.56671,0.48078 l 1.13834,0.22677 -1.06723,0.0428 c -0.69604,0.0279 -1.13744,0.24078 -1.26908,0.61198 -0.11102,0.31304 -0.41652,0.81943 -0.6789,1.12533 -0.63548,0.74084 -0.26729,2.73279 0.58992,3.19156 0.50334,0.26937 0.63648,0.23619 0.63648,-0.15867 0,-0.31668 0.32713,-0.51618 0.8944,-0.54546 0.68127,-0.0352 0.59141,-0.0933 -0.37713,-0.24393 -0.83107,-0.12926 -1.29812,-0.38263 -1.34827,-0.73143 -0.0634,-0.44078 0.1449,-0.50393 1.19679,-0.36284 1.10761,0.14856 1.24549,0.0978 1.05836,-0.38989 -0.19438,-0.50653 -0.03,-0.5386 1.70093,-0.33187 1.5771,0.18835 1.84417,0.15322 1.50955,-0.19852 -0.59474,-0.62518 -0.49626,-1.27297 0.19352,-1.27297 1.13054,0 1.80183,1.19792 1.94675,3.47399 0.10883,1.70906 0.0467,2.10644 -0.31084,1.98727 -0.24803,-0.0827 -0.5455,-0.83845 -0.66854,-1.69857 -0.20362,-1.42354 -0.59172,-2.43374 -0.59172,-1.54024 0,0.2087 -0.21954,0.37945 -0.48786,0.37945 -0.26832,0 -0.48785,0.14635 -0.48785,0.32524 0,0.17888 0.29271,0.32523 0.65047,0.32523 0.43365,0 0.65047,0.21683 0.65047,0.65048 0,0.59004 -0.23417,0.6553 -2.52058,0.70252 -1.38633,0.0286 -2.04493,0.11108 -1.46357,0.18323 0.58136,0.0721 1.05702,0.29753 1.05702,0.50085 0,0.26463 0.1109,0.25878 0.39029,-0.0206 0.63577,-0.63577 1.33433,-0.47657 1.14166,0.26019 -0.14867,0.5685 -0.01,0.65048 1.10039,0.65048 1.91367,0 1.6697,0.83619 -0.37169,1.274 -1.82496,0.39138 -3.99198,0.46386 -4.31164,0.1442 z m 0.9872,-2.26518 c -0.10807,-0.10807 -0.38859,-0.11963 -0.62337,-0.0256 -0.25946,0.10382 -0.18239,0.18089 0.19649,0.19649 0.34285,0.0141 0.53495,-0.0627 0.42688,-0.17082 z m -0.32524,-2.6019 c -0.10807,-0.10807 -0.38859,-0.11963 -0.62337,-0.0256 -0.25945,0.10382 -0.18239,0.18089 0.1965,0.19649 0.34285,0.0141 0.53494,-0.0627 0.42687,-0.17082 z m 3.10272,-0.66731 c -0.22019,-0.0891 -0.65927,-0.0945 -0.97571,-0.012 -0.31645,0.0825 -0.13629,0.15535 0.40035,0.16198 0.53664,0.007 0.79555,-0.0608 0.57536,-0.14993 z m -0.17558,-3.23554 c -0.10808,-0.10807 -0.3886,-0.11962 -0.62337,-0.0256 -0.25946,0.10382 -0.18239,0.18089 0.19649,0.1965 0.34285,0.0141 0.53495,-0.0627 0.42688,-0.17082 z m -2.6019,-0.97571 c -0.10807,-0.10807 -0.38859,-0.11962 -0.62337,-0.0257 -0.25946,0.10383 -0.18239,0.1809 0.19649,0.1965 0.34285,0.0141 0.53495,-0.0627 0.42688,-0.17082 z m -23.00376,8.83447 c 0,-0.25776 0.17123,-0.57449 0.38051,-0.70383 0.26183,-0.16181 0.31023,-0.052 0.15517,0.35205 -0.19181,0.49984 -0.15053,0.52513 0.27741,0.16997 0.42332,-0.35132 0.47038,-0.33289 0.29789,0.11662 -0.2525,0.658 -1.11098,0.70838 -1.11098,0.0652 z m 1.6353,-1.14501 c -0.40847,-0.25832 -0.39448,-0.33509 0.0953,-0.52305 0.31575,-0.12116 0.66534,-0.12904 0.77688,-0.0175 0.11154,0.11154 -0.005,0.20504 -0.25795,0.20778 -0.37938,0.004 -0.37459,0.0607 0.0271,0.32026 0.26832,0.1734 0.34149,0.31527 0.16262,0.31527 -0.17888,0 -0.54067,-0.13624 -0.80398,-0.30276 z m 40.69792,-1.18329 c -0.51631,-0.36164 -1.08389,-0.45632 -1.86117,-0.3105 -0.97817,0.18351 -1.11835,0.12642 -1.11835,-0.45541 0,-0.55443 0.20762,-0.66521 1.24675,-0.66521 0.6857,0 1.35627,0.10977 1.49017,0.24393 0.1339,0.13416 0.78031,0.41153 1.43648,0.61637 0.7364,0.22989 0.94407,0.3874 0.54253,0.41153 -0.54198,0.0326 -0.5691,0.0917 -0.16262,0.35435 0.40313,0.26053 0.37334,0.31615 -0.17153,0.32026 -0.36271,0.002 -0.9937,-0.22915 -1.40226,-0.51532 z m -0.79095,-0.97715 c -0.10807,-0.10807 -0.38859,-0.11962 -0.62338,-0.0256 -0.25944,0.10383 -0.18236,0.18089 0.19651,0.1965 0.34286,0.0141 0.53495,-0.0627 0.42687,-0.17082 z m 5.29584,-9.98508 c -1.3326,-0.45654 -1.91961,-1.79279 -0.60591,-1.37935 0.42053,0.13234 1.27681,0.33622 1.90292,0.45306 0.62606,0.11683 1.17489,0.39537 1.21964,0.61897 0.0447,0.2236 -0.0531,0.40655 -0.21735,0.40655 -0.16425,0 -0.49355,0.0651 -0.73179,0.1447 -0.23823,0.0796 -0.9436,-0.0302 -1.56751,-0.24393 z m -0.39018,-2.3996 c 0.23478,-0.094 0.5153,-0.0824 0.62338,0.0256 0.10807,0.10807 -0.084,0.18494 -0.42688,0.17082 -0.37887,-0.0156 -0.45595,-0.0927 -0.1965,-0.1965 z m 1.7956,-0.26568 c 0,-0.29427 0.30113,-0.48786 0.75887,-0.48786 0.45774,0 0.75891,0.19359 0.75891,0.48786 0,0.29425 -0.30117,0.48785 -0.75891,0.48785 -0.45774,0 -0.75887,-0.1936 -0.75887,-0.48785 z m -3.2795,-0.0992 c -0.86513,-0.12849 -0.979,-0.92685 -0.16262,-1.1402 0.54207,-0.14165 0.54207,-0.15054 0,-0.18647 -0.31304,-0.0208 -0.56917,-0.25726 -0.56917,-0.52558 0,-0.6196 1.25877,-0.63991 2.41704,-0.039 l 0.86516,0.44886 -0.84129,0.21115 c -0.46272,0.11613 -0.77179,0.32362 -0.68684,0.46107 0.28218,0.45662 -0.28025,0.88037 -1.02228,0.77017 z m 1.80913,-0.93608 c 0.23479,-0.094 0.51531,-0.0824 0.62338,0.0256 0.10808,0.10808 -0.084,0.18495 -0.42687,0.17082 -0.37887,-0.0156 -0.45595,-0.0927 -0.19651,-0.1965 z m 2.09375,-0.11436 c -0.40248,-0.16114 -0.73179,-0.37951 -0.73179,-0.48527 0,-0.10576 0.14636,-0.10184 0.32524,0.009 0.17888,0.11056 0.32524,0.046 0.32524,-0.14342 0,-0.18944 0.37659,-0.34443 0.83693,-0.34443 0.60647,0 0.80799,0.14931 0.73179,0.54221 -0.1316,0.67856 -0.5503,0.7974 -1.48741,0.4222 z m -50.81834,-3.00715 c 0,-0.22911 -0.46954,-0.59379 -1.04344,-0.81041 -0.79916,-0.30165 -0.95399,-0.48331 -0.66133,-0.77597 0.53495,-0.53495 3.98144,0.23367 3.98144,0.88792 0,0.2555 -0.29272,0.46453 -0.65048,0.46453 -0.35776,0 -0.65047,0.14636 -0.65047,0.32524 0,0.17888 -0.21954,0.32524 -0.48786,0.32524 -0.26832,0 -0.48786,-0.18745 -0.48786,-0.41655 z m 22.60399,-2.60728 c -1.48136,-0.44541 -1.89125,-1.20426 -0.65047,-1.20426 0.50154,0 0.81309,-0.18469 0.81309,-0.482 0,-0.36783 0.39357,-0.47313 1.66155,-0.44456 1.03434,0.0233 1.75858,-0.11957 1.9186,-0.37849 0.32671,-0.52863 1.29841,-0.17506 1.29841,0.47245 0,0.272 -0.46879,0.62413 -1.05702,0.79397 -1.00049,0.28888 -0.96571,0.30677 0.65047,0.33454 1.28792,0.0221 1.7075,0.14921 1.7075,0.51719 0,0.33686 -0.33827,0.48785 -1.09294,0.48785 -0.60111,0 -1.73538,0.0663 -2.52059,0.14724 -0.7852,0.081 -2.01307,-0.0288 -2.7286,-0.24393 z m 4.14678,-0.44394 c -0.2236,-0.0902 -0.5895,-0.0902 -0.8131,0 -0.2236,0.0902 -0.0407,0.16405 0.40655,0.16405 0.4472,0 0.63015,-0.0738 0.40655,-0.16405 z m 1.45679,0.0189 c -0.10807,-0.10808 -0.38859,-0.11964 -0.62337,-0.0257 -0.25946,0.10382 -0.18239,0.18089 0.1965,0.1965 0.34285,0.0141 0.53494,-0.0628 0.42687,-0.17083 z m -1.62619,-1.30095 c -0.10807,-0.10808 -0.38859,-0.11963 -0.62337,-0.0257 -0.25945,0.10382 -0.18238,0.18089 0.1965,0.1965 0.34285,0.0141 0.53495,-0.0627 0.42687,-0.17083 z m -2.94746,-1.64653 c -0.44219,-0.44219 -0.19337,-0.75888 0.59627,-0.75888 0.50593,0 0.81309,0.1843 0.81309,0.48785 0,0.48783 -1.00022,0.68017 -1.40936,0.27103 z m 2.14115,-0.33261 c 0.31304,-0.0818 0.82528,-0.0818 1.13832,0 0.31305,0.0818 0.0569,0.14875 -0.56916,0.14875 -0.62608,0 -0.8822,-0.0669 -0.56916,-0.14875 z m 0,-0.65047 c 0.31304,-0.0818 0.82528,-0.0818 1.13832,0 0.31305,0.0818 0.0569,0.14874 -0.56916,0.14874 -0.62608,0 -0.8822,-0.0669 -0.56916,-0.14874 z"
         id="path4179"
         inkscape:connector-curvature="0"
         sodipodi:nodetypes="sssssssssssssssssssssscssssssssssssssssssssssssssssssccsssscsscscsssccssssscssscssscssscccssccccscsssccccscssscsssssccscssssscssssccscsscsssssscssscsssssssssssssssssssssssssssssssscsscssssscsssssssssssssssssssssssssssssssssssssssssssccscccscssssssccsscssccccsscssssscscsccccsccsccscssscscsssssssccccccsccccccccccscscccscscsscssccscccsccscssssssccsssccssccsssssssssscssccscccssscccsccsssssssssccccssssssssscsccscscssccssccsssssssscsssscscscscccscssssssssscssssscssssssscsssccssssssssssssssssssssssscssscccccccccccccccccccccccccccsssssscsssssccsssssscccscccccssccscscccccsssssssssscscscccccsscsscsssssssssssscssssssssssssccccccccccssssssssssss" />
    </g>
  </g>
</svg>
